HIERARCHY
ROOT Hips
{
	OFFSET 0.000000 71.427986 0.000000
	CHANNELS 6 Xposition Yposition Zposition Xrotation Yrotation Zrotation
	JOINT Pelvis
	{
		OFFSET 0.000000 0.000000 0.000000
		CHANNELS 3 Xrotation Yrotation Zrotation
		JOINT LeftUpLeg
		{
			OFFSET 6.797100 -2.508499 -1.318700
			CHANNELS 3 Xrotation Yrotation Zrotation
			JOINT LeftLeg
			{
				OFFSET 0.069008 -29.241863 0.690200
				CHANNELS 3 Xrotation Yrotation Zrotation
				JOINT LeftFoot
				{
					OFFSET -0.069008 -29.568123 -0.266800
					CHANNELS 3 Xrotation Yrotation Zrotation
					JOINT LeftToeBase
					{
						OFFSET 3.145500 -8.631000 16.059900
						CHANNELS 3 Xrotation Yrotation Zrotation
						End Site
						{
							OFFSET 0.000000 18.501587 0.000000
						}
					}
				}
			}
			JOINT Left_ShortSleeve
			{
				OFFSET 0.265923 -10.480953 1.153800
				CHANNELS 3 Xrotation Yrotation Zrotation
				End Site
				{
					OFFSET 1.725763 19.823879 0.000000
				}
			}
		}
		JOINT RightUpLeg
		{
			OFFSET -6.797100 -2.508499 -1.318700
			CHANNELS 3 Xrotation Yrotation Zrotation
			JOINT RightLeg
			{
				OFFSET -0.082453 -29.241932 0.688000
				CHANNELS 3 Xrotation Yrotation Zrotation
				JOINT RightFoot
				{
					OFFSET 0.082453 -29.568058 -0.264600
					CHANNELS 3 Xrotation Yrotation Zrotation
					JOINT RightToeBase
					{
						OFFSET -3.115300 -8.682800 16.113400
						CHANNELS 3 Xrotation Yrotation Zrotation
						End Site
						{
							OFFSET 0.000000 18.567114 0.000000
						}
					}
				}
			}
			JOINT Right_ShortSleeve
			{
				OFFSET -0.265923 -10.480953 1.153800
				CHANNELS 3 Xrotation Yrotation Zrotation
				End Site
				{
					OFFSET -1.725766 19.823910 0.000000
				}
			}
		}
	}
	JOINT Spine
	{
		OFFSET 0.000000 13.368103 0.470500
		CHANNELS 3 Xrotation Yrotation Zrotation
		JOINT Spine1
		{
			OFFSET 0.147000 13.837402 0.538800
			CHANNELS 3 Xrotation Yrotation Zrotation
			JOINT Spine2
			{
				OFFSET 0.168000 16.242897 -1.435500
				CHANNELS 3 Xrotation Yrotation Zrotation
				JOINT Neck
				{
					OFFSET 0.217200 18.631500 -1.679100
					CHANNELS 3 Xrotation Yrotation Zrotation
					JOINT Head
					{
						OFFSET 0.000000 6.599396 1.385900
						CHANNELS 3 Xrotation Yrotation Zrotation
						JOINT Hat
						{
							OFFSET -0.532200 27.220596 -10.096100
							CHANNELS 3 Xrotation Yrotation Zrotation
							End Site
							{
								OFFSET 0.000000 22.029861 0.000000
							}
						}
						JOINT HairD
						{
							OFFSET -10.777400 17.437393 -1.325900
							CHANNELS 3 Xrotation Yrotation Zrotation
							JOINT HairD1
							{
								OFFSET -3.290299 -11.051193 1.062200
								CHANNELS 3 Xrotation Yrotation Zrotation
								End Site
								{
									OFFSET 0.000000 11.579437 0.000000
								}
							}
						}
						JOINT HairB
						{
							OFFSET -10.777400 17.437393 1.467900
							CHANNELS 3 Xrotation Yrotation Zrotation
							JOINT HairB1
							{
								OFFSET -1.561200 -12.956299 3.590200
								CHANNELS 3 Xrotation Yrotation Zrotation
								End Site
								{
									OFFSET 0.000000 13.534866 0.000000
								}
							}
						}
						JOINT HairA
						{
							OFFSET 9.713100 17.437393 1.467900
							CHANNELS 3 Xrotation Yrotation Zrotation
							JOINT HairA1
							{
								OFFSET 1.561200 -12.956299 3.590200
								CHANNELS 3 Xrotation Yrotation Zrotation
								End Site
								{
									OFFSET 0.000000 13.534866 0.000000
								}
							}
						}
						JOINT HairC
						{
							OFFSET 9.713100 17.437393 -1.325900
							CHANNELS 3 Xrotation Yrotation Zrotation
							JOINT HairC1
							{
								OFFSET 3.290300 -11.051193 1.062200
								CHANNELS 3 Xrotation Yrotation Zrotation
								End Site
								{
									OFFSET 0.000000 11.579437 0.000000
								}
							}
						}
					}
				}
				JOINT LeftShoulder
				{
					OFFSET 5.101800 15.108002 -2.763700
					CHANNELS 3 Xrotation Yrotation Zrotation
					JOINT LeftArm
					{
						OFFSET 9.825497 2.506317 -1.597400
						CHANNELS 3 Xrotation Yrotation Zrotation
						JOINT LeftForeArm
						{
							OFFSET 21.966244 0.000000 0.000000
							CHANNELS 3 Xrotation Yrotation Zrotation
							JOINT LeftHand
							{
								OFFSET 33.879036 0.000000 0.000000
								CHANNELS 3 Xrotation Yrotation Zrotation
								JOINT LeftHandThumb1
								{
									OFFSET 6.715286 -2.359680 3.363841
									CHANNELS 3 Xrotation Yrotation Zrotation
									JOINT LeftHandThumb2
									{
										OFFSET 2.507072 -1.447464 1.447461
										CHANNELS 3 Xrotation Yrotation Zrotation
										JOINT LeftHandThumb3
										{
											OFFSET 2.898338 -1.673355 1.673357
											CHANNELS 3 Xrotation Yrotation Zrotation
											End Site
											{
												OFFSET -0.295959 3.727692 -0.131651
											}
										}
									}
								}
								JOINT LeftHandIndex1
								{
									OFFSET 14.190811 -0.254547 3.840278
									CHANNELS 3 Xrotation Yrotation Zrotation
									JOINT LeftHandIndex2
									{
										OFFSET 3.551727 0.000000 -0.000000
										CHANNELS 3 Xrotation Yrotation Zrotation
										JOINT LeftHandIndex3
										{
											OFFSET 2.894196 0.000000 0.000000
											CHANNELS 3 Xrotation Yrotation Zrotation
											End Site
											{
												OFFSET -1.000603 2.690872 0.366626
											}
										}
									}
								}
								JOINT LeftHandMiddle1
								{
									OFFSET 13.776489 0.000000 0.000000
									CHANNELS 3 Xrotation Yrotation Zrotation
									JOINT LeftHandMiddle2
									{
										OFFSET 3.438232 0.000000 0.000000
										CHANNELS 3 Xrotation Yrotation Zrotation
										JOINT LeftHandMiddle3
										{
											OFFSET 3.691551 0.000000 0.000000
											CHANNELS 3 Xrotation Yrotation Zrotation
											End Site
											{
												OFFSET -1.082298 3.499527 0.457670
											}
										}
									}
								}
								JOINT LeftHandRing1
								{
									OFFSET 13.966164 -0.268127 -3.067488
									CHANNELS 3 Xrotation Yrotation Zrotation
									JOINT LeftHandRing2
									{
										OFFSET 3.162567 0.000000 0.000000
										CHANNELS 3 Xrotation Yrotation Zrotation
										JOINT LeftHandRing3
										{
											OFFSET 3.324348 0.000000 0.000000
											CHANNELS 3 Xrotation Yrotation Zrotation
											End Site
											{
												OFFSET -0.861900 3.184998 0.405154
											}
										}
									}
								}
								JOINT LeftHandPinky1
								{
									OFFSET 13.131393 -0.168503 -5.746925
									CHANNELS 3 Xrotation Yrotation Zrotation
									JOINT LeftHandPinky2
									{
										OFFSET 2.849182 0.000000 0.000000
										CHANNELS 3 Xrotation Yrotation Zrotation
										JOINT LeftHandPinky3
										{
											OFFSET 2.805038 0.000000 0.000000
											CHANNELS 3 Xrotation Yrotation Zrotation
											End Site
											{
												OFFSET -0.882500 2.642609 0.325652
											}
										}
									}
								}
							}
							JOINT Left_Sleeve
							{
								OFFSET 6.592125 -0.646545 0.805568
								CHANNELS 3 Xrotation Yrotation Zrotation
								End Site
								{
									OFFSET -0.000179 20.275787 -0.000000
								}
							}
						}
					}
				}
				JOINT RightShoulder
				{
					OFFSET -5.731700 15.108002 -2.763700
					CHANNELS 3 Xrotation Yrotation Zrotation
					JOINT RightArm
					{
						OFFSET -9.825497 2.506317 -1.597400
						CHANNELS 3 Xrotation Yrotation Zrotation
						JOINT RightForeArm
						{
							OFFSET -21.966242 0.000000 0.000000
							CHANNELS 3 Xrotation Yrotation Zrotation
							JOINT RightHand
							{
								OFFSET -33.879032 0.000000 0.000000
								CHANNELS 3 Xrotation Yrotation Zrotation
								JOINT RightHandThumb1
								{
									OFFSET -6.715286 -2.359680 3.363841
									CHANNELS 3 Xrotation Yrotation Zrotation
									JOINT RightHandThumb2
									{
										OFFSET -2.507072 -1.447464 1.447461
										CHANNELS 3 Xrotation Yrotation Zrotation
										JOINT RightHandThumb3
										{
											OFFSET -2.898338 -1.673355 1.673357
											CHANNELS 3 Xrotation Yrotation Zrotation
											End Site
											{
												OFFSET 0.295959 3.727692 -0.131651
											}
										}
									}
								}
								JOINT RightHandIndex1
								{
									OFFSET -14.190811 -0.254547 3.840278
									CHANNELS 3 Xrotation Yrotation Zrotation
									JOINT RightHandIndex2
									{
										OFFSET -3.551727 0.000000 -0.000000
										CHANNELS 3 Xrotation Yrotation Zrotation
										JOINT RightHandIndex3
										{
											OFFSET -2.894196 0.000000 0.000000
											CHANNELS 3 Xrotation Yrotation Zrotation
											End Site
											{
												OFFSET 1.000603 2.690872 0.366626
											}
										}
									}
								}
								JOINT RightHandMiddle1
								{
									OFFSET -13.776489 0.000000 0.000000
									CHANNELS 3 Xrotation Yrotation Zrotation
									JOINT RightHandMiddle2
									{
										OFFSET -3.438232 0.000000 0.000000
										CHANNELS 3 Xrotation Yrotation Zrotation
										JOINT RightHandMiddle3
										{
											OFFSET -3.691551 0.000000 0.000000
											CHANNELS 3 Xrotation Yrotation Zrotation
											End Site
											{
												OFFSET 1.082298 3.499527 0.457670
											}
										}
									}
								}
								JOINT RightHandRing1
								{
									OFFSET -13.966164 -0.268127 -3.067488
									CHANNELS 3 Xrotation Yrotation Zrotation
									JOINT RightHandRing2
									{
										OFFSET -3.162567 0.000000 0.000000
										CHANNELS 3 Xrotation Yrotation Zrotation
										JOINT RightHandRing3
										{
											OFFSET -3.324348 0.000000 0.000000
											CHANNELS 3 Xrotation Yrotation Zrotation
											End Site
											{
												OFFSET 0.861900 3.184998 0.405154
											}
										}
									}
								}
								JOINT RightHandPinky1
								{
									OFFSET -13.131393 -0.168503 -5.746925
									CHANNELS 3 Xrotation Yrotation Zrotation
									JOINT RightHandPinky2
									{
										OFFSET -2.849182 0.000000 0.000000
										CHANNELS 3 Xrotation Yrotation Zrotation
										JOINT RightHandPinky3
										{
											OFFSET -2.805038 0.000000 0.000000
											CHANNELS 3 Xrotation Yrotation Zrotation
											End Site
											{
												OFFSET 0.882500 2.642609 0.325652
											}
										}
									}
								}
							}
							JOINT Right_Sleeve
							{
								OFFSET -6.592125 -0.646545 0.805568
								CHANNELS 3 Xrotation Yrotation Zrotation
								End Site
								{
									OFFSET 0.000179 20.275787 -0.000000
								}
							}
						}
					}
				}
				JOINT Bind_Right_JacketString
				{
					OFFSET -3.534800 11.969597 7.200700
					CHANNELS 3 Xrotation Yrotation Zrotation
					JOINT Bind_Right_JacketString1
					{
						OFFSET -0.319900 -6.102600 2.794100
						CHANNELS 3 Xrotation Yrotation Zrotation
						End Site
						{
							OFFSET 0.000000 6.719452 0.000000
						}
					}
				}
				JOINT Bind_Left_JacketString
				{
					OFFSET 2.904800 11.969597 7.200700
					CHANNELS 3 Xrotation Yrotation Zrotation
					JOINT Bind_Left_JacketString1
					{
						OFFSET 0.364800 -5.904503 3.186800
						CHANNELS 3 Xrotation Yrotation Zrotation
						End Site
						{
							OFFSET 0.000000 6.719513 0.000000
						}
					}
				}
				JOINT HairE
				{
					OFFSET 5.915200 17.612701 -11.592200
					CHANNELS 3 Xrotation Yrotation Zrotation
					JOINT HairE1
					{
						OFFSET 0.289200 -7.171898 -1.284500
						CHANNELS 3 Xrotation Yrotation Zrotation
						End Site
						{
							OFFSET 0.000000 7.291756 0.000000
						}
					}
				}
				JOINT HairF
				{
					OFFSET -0.864800 17.612701 -11.592200
					CHANNELS 3 Xrotation Yrotation Zrotation
					JOINT HairF1
					{
						OFFSET 0.000000 -14.087097 -2.127501
						CHANNELS 3 Xrotation Yrotation Zrotation
						End Site
						{
							OFFSET 0.000000 14.246841 0.000000
						}
					}
				}
				JOINT HairG
				{
					OFFSET -8.087700 17.612701 -11.592200
					CHANNELS 3 Xrotation Yrotation Zrotation
					JOINT HairG1
					{
						OFFSET -0.293600 -6.081398 -0.910100
						CHANNELS 3 Xrotation Yrotation Zrotation
						End Site
						{
							OFFSET 0.000000 6.156120 0.000000
						}
					}
				}
			}
		}
	}
	JOINT Pouch
	{
		OFFSET 0.000000 4.394501 10.847300
		CHANNELS 3 Xrotation Yrotation Zrotation
		End Site
		{
			OFFSET 0.000000 21.880577 0.000000
		}
	}
	JOINT Bag
	{
		OFFSET -13.229000 4.813004 -0.593300
		CHANNELS 3 Xrotation Yrotation Zrotation
		End Site
		{
			OFFSET 0.000000 21.880577 0.000000
		}
	}
	JOINT OccupyGuyFacialAnim_Joint
	{
		OFFSET 1.000000 -70.206398 -1.655000
		CHANNELS 3 Xrotation Yrotation Zrotation
		End Site
		{
			OFFSET 0.000000 21.880577 0.000000
		}
	}
}
MOTION
Frames: 4
Frame Time: 0.033333
-1.005135 67.278183 0.652808 -10.815025 -54.561303 -7.030790 0.000000 -0.000001 0.000000 -20.297319 13.770652 14.676302 28.129422 14.771080 0.166912 0.775482 0.358284 -9.097922 0.000000 0.000002 0.000000 0.000000 -0.000001 -0.000001 -19.070076 -19.672519 -20.668600 38.435708 -3.774277 -3.301344 -14.930951 1.343652 11.142478 -0.000000 -0.000000 0.000000 0.000001 -0.000000 -0.000001 5.267984 0.484831 0.658388 4.893948 1.120464 0.299613 8.444751 1.036551 0.033099 2.531673 5.573098 -0.184996 2.366823 37.187238 -7.338737 -0.000001 0.000000 0.000000 -0.000001 0.000000 0.000000 -0.000001 0.000000 0.000001 -0.000001 0.000000 -0.000000 -0.000001 0.000000 0.000000 -0.000001 0.000000 -0.000000 -0.000001 0.000000 0.000000 -0.000001 0.000000 0.000000 -0.000001 0.000000 0.000000 9.150653 -24.591867 -2.246799 -26.053823 8.215548 -60.619773 -91.272310 13.114422 -86.109274 -27.757954 -7.621818 -6.305766 0.699110 9.503389 -2.418117 5.975201 12.647547 1.348337 0.000001 0.000001 -0.000000 9.479713 -1.289799 -20.785570 0.704107 2.791056 -28.467639 -0.000003 0.000002 -0.000002 10.058163 -1.800597 -20.644730 1.774267 4.200472 -45.782099 -0.000000 0.000000 0.000001 1.254224 -0.073732 -17.945782 3.754100 5.463611 -68.965287 -0.000000 0.000002 0.000001 -7.938242 1.609092 -6.495668 2.210576 4.583693 -51.475157 -0.000000 0.000001 -0.000000 -0.000000 0.000000 -0.000000 10.412280 20.306122 -1.365529 3.439090 33.624779 47.881661 68.316679 116.119008 -81.885820 -10.140850 21.398428 14.287281 13.942460 -4.273680 -5.300376 7.113164 -20.767482 -2.619473 0.000001 0.000000 -0.000000 0.357768 -5.832701 5.175863 0.094351 -0.933628 11.539898 -0.000001 0.000001 0.000001 3.764100 -12.080498 1.143743 5.714278 -4.535859 103.133507 0.000001 0.000000 0.000003 -12.155604 -12.623910 9.228333 6.566862 -4.248457 114.232312 -0.000000 -0.000003 -0.000004 -17.635753 -10.496865 3.325436 4.993702 -4.645013 94.147929 -0.000000 0.000001 -0.000003 0.000000 -0.000001 -0.000000 -0.000000 -0.000002 0.000001 0.000001 -0.000004 0.000001 -0.000000 -0.000002 0.000001 -0.000000 -0.000002 0.000001 -0.000000 -0.000002 0.000001 0.000001 -0.000004 0.000001 -0.000000 -0.000002 0.000001 -0.000000 -0.000002 0.000001 -0.000000 -0.000002 0.000001 0.000001 -0.000004 0.000001 0.000000 -0.000001 0.000000 0.000000 -0.000001 0.000000 0.000000 -0.000001 0.000000 
-1.157494 67.215401 0.881092 -11.276927 -54.549907 -7.382252 0.000000 0.000001 -0.000000 -19.953551 12.727608 14.507803 29.118568 12.065546 -0.101580 0.112838 4.051388 -9.417325 0.000000 -0.000000 -0.000000 -0.000001 -0.000005 -0.000003 -18.822354 -19.843959 -21.042327 38.756566 -2.798355 -3.195198 -15.265777 0.723487 11.049680 0.000000 -0.000001 0.000000 -0.000000 -0.000001 -0.000000 5.195209 0.524903 0.812373 5.027236 1.163078 0.506334 8.501952 1.035023 0.195457 2.528162 5.610196 -0.171110 2.877834 36.378035 -7.849136 0.000000 0.000001 -0.000001 0.000000 0.000001 -0.000001 0.000000 0.000001 0.000001 0.000000 0.000001 -0.000000 -0.000001 0.000000 0.000001 0.000000 0.000001 -0.000000 -0.000001 0.000000 0.000001 0.000000 0.000001 -0.000001 0.000000 0.000001 -0.000001 8.804169 -24.436352 -2.916734 -26.036889 8.734966 -61.389665 -91.110393 12.124392 -86.387119 -27.597678 -7.048897 -6.214648 0.699111 9.503393 -2.418123 5.975202 12.647542 1.348340 0.000000 0.000001 -0.000001 9.479719 -1.289772 -20.785563 0.704114 2.791062 -28.467621 0.000002 0.000003 -0.000003 10.058159 -1.800605 -20.644737 1.774264 4.200469 -45.782099 0.000001 -0.000001 -0.000001 1.254225 -0.073737 -17.945793 3.754102 5.463628 -68.965301 0.000004 0.000003 0.000001 -7.938246 1.609104 -6.495666 2.210583 4.583703 -51.475164 0.000000 0.000001 0.000001 0.000001 0.000000 0.000000 10.508259 19.799684 -1.742175 2.528498 33.189071 49.615034 67.483731 117.196661 -80.855445 -8.128901 20.366880 15.050131 13.942464 -4.273682 -5.300376 7.113165 -20.767482 -2.619475 -0.000001 -0.000001 -0.000001 0.357767 -5.832702 5.175863 0.094351 -0.933629 11.539897 -0.000001 0.000000 0.000002 3.764099 -12.080495 1.143741 5.714278 -4.535856 103.133514 0.000000 0.000000 -0.000001 -12.155605 -12.623908 9.228330 6.566862 -4.248455 114.232312 -0.000001 -0.000001 -0.000002 -17.635755 -10.496866 3.325432 4.993696 -4.645014 94.147935 -0.000002 -0.000002 0.000000 -0.000000 0.000000 -0.000001 0.000001 0.000001 -0.000000 0.000002 0.000001 -0.000000 0.000001 0.000001 -0.000000 0.000001 0.000001 -0.000000 0.000001 0.000001 -0.000000 0.000002 0.000001 -0.000000 0.000001 0.000001 -0.000000 0.000001 0.000001 -0.000000 0.000001 0.000001 -0.000000 0.000002 0.000001 -0.000000 0.000000 0.000001 -0.000000 0.000000 0.000001 -0.000000 0.000000 0.000001 -0.000000 
-1.307982 67.142059 1.110157 -11.715553 -54.544094 -7.666618 0.000001 0.000001 -0.000000 -19.629745 11.741432 14.262350 30.078101 10.027199 -0.305292 -0.546584 7.057372 -9.695039 0.000000 -0.000002 0.000000 -0.000000 -0.000000 0.000001 -18.643590 -19.969351 -21.473041 39.133962 -2.062099 -3.107779 -15.632720 0.320020 11.026154 -0.000000 -0.000000 -0.000000 0.000000 -0.000000 -0.000000 5.193853 0.549592 0.897378 5.043596 1.186191 0.720614 8.497789 1.021354 0.354418 2.489983 5.661302 -0.147171 3.258464 35.685273 -8.278378 0.000000 0.000000 -0.000000 0.000000 0.000000 -0.000000 0.000000 0.000000 0.000000 0.000000 0.000000 -0.000001 0.000000 0.000000 -0.000001 0.000000 0.000000 -0.000001 0.000000 0.000000 -0.000001 0.000000 0.000000 -0.000000 0.000000 0.000000 -0.000000 8.371289 -24.081336 -3.632148 -25.896148 9.208180 -62.357510 -90.985770 11.301238 -86.565374 -27.201575 -6.362976 -6.106243 0.699112 9.503389 -2.418120 5.975200 12.647551 1.348338 0.000000 -0.000002 -0.000002 9.479715 -1.289789 -20.785563 0.704107 2.791066 -28.467622 -0.000000 -0.000001 -0.000004 10.058157 -1.800607 -20.644728 1.774265 4.200467 -45.782109 -0.000002 -0.000001 -0.000003 1.254223 -0.073724 -17.945784 3.754102 5.463621 -68.965294 -0.000001 0.000000 -0.000003 -7.938241 1.609098 -6.495669 2.210580 4.583707 -51.475181 -0.000002 -0.000002 -0.000001 -0.000000 0.000003 0.000000 10.539757 19.335784 -2.013702 1.532699 32.684217 51.585519 66.812624 117.716630 -80.029675 -6.547382 19.277743 16.068761 13.942463 -4.273681 -5.300375 7.113166 -20.767480 -2.619475 -0.000000 0.000000 0.000001 0.357769 -5.832704 5.175862 0.094351 -0.933630 11.539897 0.000001 0.000000 -0.000001 3.764100 -12.080496 1.143745 5.714275 -4.535856 103.133514 -0.000000 0.000000 -0.000003 -12.155605 -12.623911 9.228332 6.566862 -4.248457 114.232312 0.000000 0.000002 0.000002 -17.635753 -10.496867 3.325432 4.993699 -4.645014 94.147929 -0.000002 0.000001 -0.000003 -0.000000 -0.000000 -0.000000 -0.000000 0.000001 -0.000000 0.000000 0.000004 -0.000001 -0.000000 0.000001 -0.000000 -0.000000 0.000001 -0.000000 -0.000000 0.000001 -0.000000 0.000000 0.000004 -0.000001 -0.000000 0.000001 -0.000000 -0.000000 0.000001 -0.000000 -0.000000 0.000001 -0.000000 0.000000 0.000004 -0.000001 0.000001 0.000001 -0.000000 0.000001 0.000001 -0.000000 0.000001 0.000001 -0.000000 
-1.419986 67.011665 1.286251 -11.569840 -54.555880 -7.289334 -0.000000 0.000002 0.000000 -19.788830 10.989831 13.813715 31.075834 10.235723 -0.310757 -1.140647 7.640426 -10.005490 0.000000 0.000000 0.000000 -0.000001 0.000000 0.000000 -19.042946 -19.751630 -22.015185 39.862483 -2.299964 -3.091000 -16.126493 0.564059 11.278683 0.000000 -0.000000 0.000000 -0.000000 -0.000002 0.000001 5.537133 0.472433 0.586683 4.466725 1.080424 0.966395 8.171745 0.917269 0.494699 2.257309 5.787913 -0.077650 3.092277 35.560489 -8.086450 0.000001 0.000000 -0.000000 0.000001 0.000000 -0.000000 0.000001 0.000000 0.000000 0.000001 0.000000 -0.000001 0.000001 0.000000 -0.000000 0.000001 0.000000 -0.000001 0.000001 0.000000 -0.000000 0.000001 0.000000 -0.000000 0.000001 0.000000 -0.000000 7.503061 -22.912512 -4.633313 -25.140477 9.681819 -64.058527 -90.917679 11.051541 -86.622986 -25.712023 -5.054303 -6.348260 0.699111 9.503388 -2.418119 5.975201 12.647548 1.348339 0.000001 0.000001 -0.000001 9.479712 -1.289800 -20.785575 0.704112 2.791070 -28.467624 0.000004 -0.000001 0.000001 10.058158 -1.800614 -20.644735 1.774266 4.200487 -45.782075 -0.000003 -0.000003 -0.000001 1.254224 -0.073744 -17.945782 3.754100 5.463614 -68.965301 -0.000002 0.000001 0.000000 -7.938242 1.609101 -6.495667 2.210582 4.583695 -51.475161 -0.000002 -0.000005 0.000002 0.000000 -0.000002 0.000000 10.358400 18.862358 -1.886399 0.395115 32.445953 53.898112 66.508933 116.345866 -79.751529 -6.474405 18.254476 17.624361 13.942463 -4.273680 -5.300376 7.113165 -20.767480 -2.619475 -0.000000 0.000000 -0.000000 0.357766 -5.832702 5.175862 0.094353 -0.933629 11.539902 -0.000001 0.000001 0.000000 3.764098 -12.080496 1.143742 5.714278 -4.535857 103.133507 0.000001 -0.000000 0.000001 -12.155607 -12.623911 9.228331 6.566866 -4.248457 114.232312 -0.000001 -0.000001 -0.000001 -17.635757 -10.496864 3.325434 4.993700 -4.645013 94.147935 0.000002 0.000003 0.000003 -0.000000 -0.000000 0.000000 -0.000000 -0.000003 0.000000 -0.000000 0.000000 0.000000 -0.000000 -0.000003 0.000001 -0.000000 -0.000003 0.000001 -0.000000 -0.000003 0.000000 -0.000000 0.000000 0.000000 -0.000000 -0.000003 0.000001 -0.000000 -0.000003 0.000001 -0.000000 -0.000003 0.000000 -0.000000 0.000000 0.000000 -0.000000 0.000002 0.000000 -0.000000 0.000002 0.000000 -0.000000 0.000002 0.000000 
